Coordinates
version=1
nRows=13
nColumns=34
inDegrees=yes

Units are S.I. units (second, meters, Newtons, ...)
If the header above contains a line with 'inDegrees', this indicates whether rotational values are in degrees (yes) or radians (no).

endheader
time	pelvis_tilt	pelvis_list	pelvis_rotation	pelvis_tx	pelvis_ty	pelvis_tz	hip_flexion_r	hip_adduction_r	hip_rotation_r	knee_angle_r	ankle_angle_r	subtalar_angle_r	mtp_angle_r	hip_flexion_l	hip_adduction_l	hip_rotation_l	knee_angle_l	ankle_angle_l	subtalar_angle_l	mtp_angle_l	lumbar_extension	lumbar_bending	lumbar_rotation	arm_flex_r	arm_add_r	arm_rot_r	elbow_flex_r	pro_sup_r	arm_flex_l	arm_add_l	arm_rot_l	elbow_flex_l	pro_sup_l
      2.43333330	    -26.11305163	      3.92774367	     -3.84682265	      0.88435545	      1.18919846	     -0.01262278	     20.79772482	     -2.88959660	    -15.03520199	      0.00000000	    -45.33085419	     -2.28169662	      0.00000000	     24.14950154	     -4.55607264	    -14.10866989	      3.54114596	    -46.69087014	     -2.82949350	      0.00000000	     14.51225402	     -2.07094982	      0.19557763	    120.42565175	    -85.32795368	    117.44860687	     64.92988847	     55.56458408	    321.09723889	   -110.54905182	    307.27682916	     72.86799548	     65.82814339
      2.45000000	    -25.00635145	      3.72655984	     -3.36892947	      0.89062165	      1.22956504	     -0.00893512	     18.59199556	     -3.34133231	    -14.92721599	      1.42374788	    -47.99032210	     -3.19039187	      0.00000000	     22.73453944	     -5.66278585	    -13.46405329	      7.61921945	    -47.90328923	     -5.15574632	      0.00000000	     13.68737878	     -2.48746021	      5.92534734	    124.99437193	    -99.93300291	    122.71614598	     67.61966238	     61.85444486	    291.95142521	   -115.03596059	    279.98860420	     62.57670934	     65.37060462
      2.46666670	    -23.78198502	      4.03398470	     -3.37863808	      0.89604520	      1.24914966	     -0.00618522	     18.06085900	     -4.37308083	    -13.47168223	      6.30724924	    -50.00000000	     -5.23371489	      0.00000000	     23.08945434	     -6.20683094	    -10.25515170	     15.53025100	    -47.60314988	     -8.87171788	      0.00000000	     12.46522150	     -3.26630568	      7.54564258	    131.35421474	   -108.20856318	    129.92108522	     67.78013539	     65.92822446	    281.16721161	   -116.58458079	    270.76660443	     55.52266337	     65.73176694
      2.48333330	    -22.27976805	      3.90335277	     -3.12922489	      0.90543643	      1.28977923	     -0.00189290	     17.74628514	     -5.03539822	    -12.27990007	     11.98097659	    -50.00000000	     -6.41950762	      0.00000000	     23.71201912	     -6.57967885	     -6.92194746	     23.57071523	    -49.21628737	    -10.63481900	      0.00000000	     10.69752791	     -3.49715788	      8.03383916	    138.55426646	   -115.67961913	    138.00858716	     65.57246631	     69.70640749	    269.13533174	   -116.69326440	    259.16480670	     50.82785987	     64.88458304
      2.50000000	    -20.77122350	      3.07188932	     -3.38396387	      0.90964082	      1.31830501	      0.00176566	     18.41015468	     -4.72393157	    -10.61446153	     17.10735038	    -50.00000000	     -9.37940043	      0.00000000	     24.20451840	     -7.23852076	     -3.95497671	     30.24286140	    -48.20351364	     -8.71449033	      0.00000000	      8.74447160	     -2.45240885	      7.52269213	    145.00695670	   -120.24372163	    145.49369861	     61.63420221	     73.49516576	    256.89389349	   -116.58248110	    246.42901816	     44.67887653	     64.00689743
      2.51666670	    -19.81911152	      2.85753529	     -3.19199525	      0.91677191	      1.34170631	      0.00271669	     18.16260214	     -4.82504594	    -10.08433753	     18.75627160	    -50.00000000	     -8.32789112	      0.00000000	     24.48759709	     -7.28685771	     -3.26438368	     33.67749909	    -48.24755851	     -6.71452130	      0.00000000	      7.22780508	     -2.05374265	      2.09499235	    159.62794604	   -123.81234978	    158.28413721	     56.43503659	     81.62341455	    232.10637738	   -111.73621767	    217.93901328	     46.20575583	     65.98252689
      2.53333330	    -18.83195397	      3.27686350	     -2.96716127	      0.92601148	      1.36882163	      0.00726959	     16.74528723	     -5.14756223	     -9.44600659	     16.55566576	    -50.00000000	     -8.82916003	      0.00000000	     23.72701013	     -6.73204710	     -3.22334329	     33.97839295	    -45.97337121	     -3.70708105	      0.00000000	      6.66325260	     -2.92896626	      2.38299206	    160.65801374	   -130.97805285	    159.04676851	     49.79639897	     81.28488883	    226.92210847	   -117.16846630	    216.20918817	     37.68851957	     65.78537126
      2.55000000	    -18.63331306	      3.54335251	     -2.34497938	      0.93136574	      1.37842045	      0.01012019	     15.72637127	     -5.13417752	     -8.62175523	     13.20465933	    -50.00000000	     -8.59420858	      0.00000000	     23.26266709	     -6.56974177	     -4.00074053	     32.11583768	    -44.93276620	     -2.39108285	      0.00000000	      6.88216609	     -3.68599922	      1.81960585	    160.87562183	   -137.21673156	    159.14027533	     48.06310716	     81.14627077	    221.57648487	   -120.41066748	    214.55720331	     32.61166616	     65.34041678
      2.56666670	    -18.70155689	      4.29043563	     -2.07826134	      0.94262393	      1.39349972	      0.01348961	     14.84441869	     -5.65645903	     -9.04470697	      9.95406371	    -50.00000000	     -7.78825522	      0.00000000	     22.35606097	     -5.71366686	     -4.74467003	     28.59696263	    -43.56402756	     -2.48128540	      0.00000000	      7.41104101	     -4.56745494	      1.82917227	    160.11441561	   -143.03255720	    158.56052608	     44.65069184	     81.83736895	    213.48307610	   -125.02522283	    202.78279477	     29.54412772	     63.51481328
      2.58333330	    -18.92188868	      4.14489680	     -1.98071888	      0.94587588	      1.40201342	      0.01519132	     14.90639296	     -4.98004268	     -9.22224761	      8.23651478	    -48.94468002	     -6.82443008	      0.00000000	     21.98372928	     -5.87880261	     -5.51452407	     25.03200484	    -41.36706123	     -0.92176230	      0.00000000	      7.97037232	     -4.35814139	      1.31429346	    160.26886851	   -148.10004290	    157.58786944	     41.95343384	     81.63572026	    207.64543836	   -127.39487141	    202.53164412	     26.80797238	     63.57249937
      2.60000000	    -18.77418578	      3.98073587	     -1.53155461	      0.95202131	      1.41670598	      0.01784234	     14.35280910	     -4.48380105	    -10.10675748	      7.10274404	    -47.26414869	     -6.30506896	      0.00000000	     21.46162719	     -5.79496147	     -6.35031473	     22.71392402	    -40.12937733	     -2.29635835	      0.00000000	      8.12015184	     -4.25377837	      0.35249706	    161.05413524	   -153.03218192	    155.89270848	     35.39311548	     81.58474073	    202.13807868	   -131.46438180	    197.05166657	     24.58566641	     62.74476992
      2.61666670	    -18.62241270	      3.45078899	     -1.43753163	      0.95666130	      1.42339425	      0.01893313	     14.71766287	     -3.77870309	    -10.29343036	      7.72010688	    -43.68652555	     -6.14252852	      0.00000000	     21.07688017	     -6.08872268	     -6.87625584	     20.71229295	    -38.38122058	     -1.97375662	      0.00000000	      8.01145149	     -3.36399228	     -0.15770441	    161.82138861	   -157.01979775	    155.67161972	     29.02261462	     81.36452388	    197.13283046	   -135.32447650	    194.94899642	     23.69873150	     62.48131685
      2.63333330	    -18.16019999	      2.92842415	     -0.78411380	      0.96877918	      1.43081214	      0.02512126	     13.98009770	     -3.03643336	    -10.07512332	      8.09112883	    -42.95998940	     -6.08918679	      0.00000000	     20.09897700	     -6.21383292	     -7.09763516	     18.69532646	    -37.05438242	     -2.31255051	      0.00000000	      7.92681613	     -2.68059115	     -1.84216251	    162.89865580	   -160.36417046	    157.01549775	     21.67023509	     80.38713950	    191.26559347	   -139.01220217	    190.26922617	     22.96270198	     61.67091932
